<svg id="Layer_1" data-name="Layer 1" xmlns="http://www.w3.org/2000/svg" viewBox="0 0 200 77.42"><defs><style>.cls-1{fill:#ee4733;}</style></defs><path class="cls-1" d="M39.1,21.11l0-9.63S23.29,3.63,13.36,19,5.43,58.71,18.94,64s15.35-.47,15.35-.47l0,4.16,11.19,0S41.89,44.52,45,32.31l-21.32-.07S26,42.65,25.5,46l10.4,0s.49,10.41-10.17,9.59-11.12-22.4-4.59-32S39.1,21.11,39.1,21.11Z"/><path class="cls-1" d="M192.87,47.54s-16.11-3.11-24.12,2.59c0,0-4.22-14.4-1.67-20.38l-10.66,0s-3.89,10.65-6.72,20.36-4.43,12.11-7.1,11a5.41,5.41,0,0,1-3.31-6.8s10-6.5,8.05-18.1-17.44-4.45-18.4,6.08,3.55,16.53,3.55,16.53-8.14,4.5-8.11-5.09l.07-23.45-6.93,0-.06,20s-2,8.52-6.56,9-6.11-6.41-6.09-11.21l0-15.32,9.19,0V27.85l-8.66,0,2.07-21-10.13,0,1,21.32-9.86,0v4.8l8.53,0-.07,22s.12,4.8-5.74,3.45-2.89-13.06-.61-17.72c0,0-8.65-5.09-9.56-10.95l-6.8,1.58s2.61,17.19-9,27.94c-4.22,3.91-8.52-2.69-8.52-2.69S71.51,46.11,68.35,35.17,49,31.65,48.06,47.77s8.45,25.07,17.39,18.84S80.84,43.47,79.39,38.67l4.79,4.15s-5.38,15,.6,22,14.27-5.15,14.27-5.15,2.77,8.93,9.83,7.89S119,62,119,62s2.11,6.54,7.45,5.35a19.3,19.3,0,0,0,8.94-5s4.38,4.54,10.11,2.69,13.26-23.8,13.26-23.8,5.31,6.14,3.84,10a14.45,14.45,0,0,0-7.9,10.9C153,72.73,168.41,73.23,171.5,64.93c1.88-5.06-1-12.66-1-12.66s16.39.18,21.71,4.2ZM57.8,41c3.61-4.12,7.2-2.11,5.19,2.68s-8.41,7-8.41,7A14.68,14.68,0,0,1,57.8,41ZM138,40.33c2.83-4.34,6.8-2.22,5.7,2.82s-7.08,7.42-7.08,7.42S135.2,44.67,138,40.33Zm25.49,22.84c-2.27,2.79-6.27,2.65-5-2.28a7.85,7.85,0,0,1,5.61-5.84S165.79,60.38,163.51,63.17Z"/><circle class="cls-1" cx="120.37" cy="19.66" r="5.47" transform="translate(26.98 98.11) rotate(-49.31)"/><path class="cls-1" d="M154.05,17.66l-9.68,0s7.13,8.86,4.17,12.64C148.54,30.27,155.29,25.24,154.05,17.66Z"/></svg>